<?xml version="1.0" encoding="UTF-8" standalone="no"?>
<!DOCTYPE svg PUBLIC "-//W3C//DTD SVG 1.1//EN" "http://www.w3.org/Graphics/SVG/1.1/DTD/svg11.dtd">
<svg width="100%" height="100%" viewBox="0 0 48 48" version="1.1" xmlns="http://www.w3.org/2000/svg" xmlns:xlink="http://www.w3.org/1999/xlink" xml:space="preserve" xmlns:serif="http://www.serif.com/" style="fill-rule:evenodd;clip-rule:evenodd;stroke-linecap:round;stroke-linejoin:round;">
    <g transform="matrix(0.199219,0,0,0.199219,-1.5,-4.68632)">
        <path d="M45.15,230.11C43.708,231.323 41.884,231.988 40,231.988C35.616,231.988 32.007,228.384 32,224L32,64C32,59.611 35.611,56 40,56L216,56C220.389,56 224,59.611 224,64L224,192C224,196.389 220.389,200 216,200L80,200L45.15,230.11Z" style="fill:rgb(164,29,156);fill-rule:nonzero;stroke:black;stroke-width:16px;"/>
    </g>
    <g transform="matrix(0.135593,0,0,0.135593,24,24)">
        <circle cx="88.5" cy="88.5" r="88.5" style="fill:rgb(232,232,232);"/>
    </g>
    <g transform="matrix(0.135593,0,0,0.135593,24,24)">
        <rect x="122.8" y="48.4" width="16" height="79" style="fill-rule:nonzero;"/>
    </g>
    <g transform="matrix(0.135593,0,0,0.135593,24,24)">
        <circle cx="71.2" cy="87.5" r="39.1"/>
    </g>
    <g transform="matrix(0.135593,0,0,0.135593,24,24)">
        <circle cx="71.2" cy="87.5" r="23.4" style="fill:rgb(226,226,226);"/>
    </g>
</svg>
