<?xml version="1.0" encoding="UTF-8" standalone="no"?>
<!DOCTYPE svg PUBLIC "-//W3C//DTD SVG 1.1//EN" "http://www.w3.org/Graphics/SVG/1.1/DTD/svg11.dtd">
<svg width="100%" height="100%" viewBox="0 0 48 48" version="1.1" xmlns="http://www.w3.org/2000/svg" xmlns:xlink="http://www.w3.org/1999/xlink" xml:space="preserve" xmlns:serif="http://www.serif.com/" style="fill-rule:evenodd;clip-rule:evenodd;stroke-linecap:round;stroke-linejoin:round;">
    <g transform="matrix(0.204427,0,0,0.204427,-2.16667,-2.16667)">
        <path d="M200,224L56,224C51.611,224 48,220.389 48,216L48,40C48,35.611 51.611,32 56,32L152,32L208,88L208,216C208,220.389 204.389,224 200,224Z" style="fill:rgb(164,29,156);fill-rule:nonzero;stroke:black;stroke-width:16px;"/>
    </g>
    <g transform="matrix(0.204427,0,0,0.204427,-2.16667,-2.16667)">
        <path d="M152,32L152,88L208,88" style="fill:none;fill-rule:nonzero;stroke:black;stroke-width:16px;"/>
    </g>
    <g transform="matrix(0.204427,0,0,0.204427,-2.16667,-2.16667)">
        <path d="M128,120L128,184" style="fill:none;fill-rule:nonzero;stroke:black;stroke-width:16px;"/>
    </g>
    <g transform="matrix(0.204427,0,0,0.204427,-2.16667,-2.16667)">
        <path d="M104,160L128,184L152,160" style="fill:none;fill-rule:nonzero;stroke:black;stroke-width:16px;"/>
    </g>
    <g transform="matrix(0.135593,0,0,0.135593,24,24)">
        <circle cx="88.5" cy="88.5" r="88.5" style="fill:rgb(232,232,232);"/>
    </g>
    <g transform="matrix(0.135593,0,0,0.135593,24,24)">
        <rect x="122.8" y="48.4" width="16" height="79" style="fill-rule:nonzero;"/>
    </g>
    <g transform="matrix(0.135593,0,0,0.135593,24,24)">
        <circle cx="71.2" cy="87.5" r="39.1"/>
    </g>
    <g transform="matrix(0.135593,0,0,0.135593,24,24)">
        <circle cx="71.2" cy="87.5" r="23.4" style="fill:rgb(226,226,226);"/>
    </g>
</svg>
